<svg width="155" height="17" viewBox="0 0 155 17" fill="none" xmlns="http://www.w3.org/2000/svg">
<path d="M12.296 10.424C12.296 12.584 11.856 14.224 10.976 15.344C10.096 16.448 8.6 17 6.488 17C5.304 17 4.2 16.96 3.176 16.88C2.168 16.784 1.28 16.672 0.512 16.544L0.44 16.496V0.631999H4.28V6.896H4.376C4.6 6.32 4.968 5.856 5.48 5.504C6.008 5.152 6.752 4.976 7.712 4.976C10.768 4.976 12.296 6.792 12.296 10.424ZM4.28 10.832V13.64C4.664 13.704 5.112 13.736 5.624 13.736C6.376 13.736 6.96 13.672 7.376 13.544C7.808 13.4 8.112 13.128 8.288 12.728C8.464 12.328 8.552 11.752 8.552 11C8.552 10.056 8.416 9.36 8.144 8.912C7.872 8.464 7.312 8.24 6.464 8.24C5.824 8.24 5.296 8.44 4.88 8.84C4.48 9.224 4.28 9.888 4.28 10.832ZM24.6344 16.4C24.1864 16.56 23.5624 16.704 22.7624 16.832C21.9784 16.944 21.0424 17 19.9544 17C18.5784 17 17.4024 16.824 16.4264 16.472C15.4664 16.104 14.7384 15.488 14.2424 14.624C13.7464 13.744 13.4984 12.528 13.4984 10.976C13.4984 8.864 13.9784 7.336 14.9384 6.392C15.9144 5.448 17.4184 4.976 19.4504 4.976C20.9064 4.976 22.0504 5.184 22.8824 5.6C23.7304 6.016 24.3304 6.608 24.6824 7.376C25.0504 8.128 25.2344 9.024 25.2344 10.064C25.2344 10.368 25.2184 10.696 25.1864 11.048C25.1704 11.4 25.1304 11.744 25.0664 12.08L24.9704 12.176H17.0744C17.1864 12.88 17.5144 13.344 18.0584 13.568C18.6184 13.792 19.5224 13.904 20.7704 13.904C21.6024 13.904 22.2904 13.888 22.8344 13.856C23.3944 13.808 23.9624 13.744 24.5384 13.664L24.6344 13.736V16.4ZM21.8984 9.656C21.8984 9.272 21.8344 8.944 21.7064 8.672C21.5944 8.384 21.3624 8.168 21.0104 8.024C20.6584 7.864 20.1384 7.784 19.4504 7.784C18.4424 7.784 17.7784 7.96 17.4584 8.312C17.1544 8.648 17.0024 9.096 17.0024 9.656H21.8984ZM31.1159 16.784H27.2759V5.096H30.9239L31.1159 7.232H31.1879C31.4119 6.512 31.8119 5.96 32.3879 5.576C32.9639 5.176 33.7639 4.976 34.7879 4.976C36.1799 4.976 37.2039 5.368 37.8599 6.152C38.5319 6.936 38.8679 8.296 38.8679 10.232V16.784H35.0279L35.0039 10.976C35.0039 10.08 34.8679 9.44 34.5959 9.056C34.3239 8.672 33.8119 8.48 33.0599 8.48C32.3559 8.48 31.8599 8.656 31.5719 9.008C31.2839 9.344 31.1319 9.928 31.1159 10.76V16.784ZM45.3425 16.784H41.5025V0.655999H45.3425V7.232H45.4145C45.6385 6.512 46.0465 5.96 46.6385 5.576C47.2465 5.176 48.0385 4.976 49.0145 4.976C49.9425 4.976 50.7025 5.128 51.2945 5.432C51.9025 5.736 52.3505 6.272 52.6385 7.04C52.9425 7.792 53.0945 8.856 53.0945 10.232V16.784H49.2545L49.2305 10.976C49.2305 10.08 49.0945 9.44 48.8225 9.056C48.5505 8.672 48.0385 8.48 47.2865 8.48C46.6145 8.48 46.1265 8.656 45.8225 9.008C45.5185 9.36 45.3585 9.952 45.3425 10.784V16.784ZM54.8656 11.024C54.8656 8.88 55.3216 7.336 56.2336 6.392C57.1456 5.448 58.6896 4.976 60.8656 4.976C62.3216 4.976 63.4896 5.184 64.3696 5.6C65.2496 6.016 65.8816 6.672 66.2656 7.568C66.6656 8.448 66.8656 9.6 66.8656 11.024C66.8656 12.432 66.6656 13.576 66.2656 14.456C65.8816 15.336 65.2496 15.984 64.3696 16.4C63.4896 16.8 62.3216 17 60.8656 17C58.6896 17 57.1456 16.536 56.2336 15.608C55.3216 14.664 54.8656 13.136 54.8656 11.024ZM60.8656 13.712C61.7936 13.712 62.4176 13.512 62.7376 13.112C63.0736 12.696 63.2416 11.976 63.2416 10.952C63.2416 9.976 63.0736 9.28 62.7376 8.864C62.4176 8.432 61.7936 8.216 60.8656 8.216C59.9696 8.216 59.3456 8.432 58.9936 8.864C58.6576 9.28 58.4896 9.976 58.4896 10.952C58.4896 11.976 58.6576 12.696 58.9936 13.112C59.3456 13.512 59.9696 13.712 60.8656 13.712ZM73.3409 4.976C74.8769 4.976 76.1169 5.136 77.0609 5.456C78.0049 5.776 78.6929 6.368 79.1249 7.232C79.5729 8.08 79.7969 9.312 79.7969 10.928V16.784H76.3169L76.1969 15.68H76.1249C75.8209 16.08 75.3489 16.4 74.7089 16.64C74.0689 16.88 73.2369 17 72.2129 17C69.4449 17 68.0609 15.704 68.0609 13.112C68.0609 12.008 68.4209 11.144 69.1409 10.52C69.8769 9.88 71.0289 9.56 72.5969 9.56H76.1489C76.0369 8.888 75.7489 8.44 75.2849 8.216C74.8209 7.976 74.0289 7.856 72.9089 7.856C72.2049 7.856 71.5089 7.912 70.8209 8.024C70.1489 8.12 69.5569 8.232 69.0449 8.36L68.9729 8.312L68.9969 5.528C69.3169 5.432 69.7249 5.344 70.2209 5.264C70.7169 5.168 71.2369 5.096 71.7809 5.048C72.3409 5 72.8609 4.976 73.3409 4.976ZM73.1969 14.168C74.1889 14.168 74.9329 14.048 75.4289 13.808C75.9249 13.552 76.1809 13.152 76.1969 12.608V12.008H73.4849C72.7809 12.008 72.2849 12.112 71.9969 12.32C71.7249 12.512 71.5889 12.776 71.5889 13.112C71.5889 13.512 71.7329 13.792 72.0209 13.952C72.3089 14.096 72.7009 14.168 73.1969 14.168ZM82.5472 13.28V8.24H81.1072V5.12H82.9072L83.6272 2.264H86.3872V5.12H89.0032V8.24H86.3872V12.44C86.3872 12.888 86.4432 13.2 86.5552 13.376C86.6672 13.536 86.9232 13.616 87.3232 13.616C87.5792 13.616 87.8512 13.608 88.1392 13.592C88.4272 13.56 88.7152 13.528 89.0032 13.496L89.0752 13.544V16.664C88.3072 16.888 87.2912 17 86.0272 17C84.7632 17 83.8672 16.712 83.3392 16.136C82.8112 15.56 82.5472 14.608 82.5472 13.28ZM95.0769 16.784H91.2369V0.655999H95.0769V7.232H95.1489C95.3729 6.512 95.7809 5.96 96.3729 5.576C96.9809 5.176 97.7729 4.976 98.7489 4.976C99.6769 4.976 100.437 5.128 101.029 5.432C101.637 5.736 102.085 6.272 102.373 7.04C102.677 7.792 102.829 8.856 102.829 10.232V16.784H98.9889L98.9649 10.976C98.9649 10.08 98.8289 9.44 98.5569 9.056C98.2849 8.672 97.7729 8.48 97.0209 8.48C96.3489 8.48 95.8609 8.656 95.5569 9.008C95.2529 9.36 95.0929 9.952 95.0769 10.784V16.784ZM109.472 13.376C109.504 13.728 109.528 14.032 109.544 14.288C109.56 14.528 109.568 14.784 109.568 15.056C109.568 15.312 109.56 15.576 109.544 15.848C109.528 16.104 109.504 16.4 109.472 16.736C109.072 16.8 108.672 16.856 108.272 16.904C107.872 16.952 107.472 16.976 107.072 16.976C106.688 16.976 106.304 16.952 105.92 16.904C105.536 16.856 105.144 16.8 104.744 16.736C104.696 16.416 104.664 16.128 104.648 15.872C104.632 15.6 104.624 15.336 104.624 15.08C104.624 14.84 104.632 14.584 104.648 14.312C104.664 14.04 104.696 13.728 104.744 13.376C105.544 13.232 106.336 13.16 107.12 13.16C107.904 13.16 108.688 13.232 109.472 13.376ZM120.724 13.4V16.52C120.324 16.68 119.732 16.8 118.948 16.88C118.164 16.96 117.332 17 116.452 17C115.188 17 114.132 16.824 113.284 16.472C112.452 16.12 111.828 15.512 111.412 14.648C111.012 13.784 110.804 12.584 110.788 11.048C110.788 9.464 111.004 8.232 111.436 7.352C111.884 6.472 112.532 5.856 113.38 5.504C114.228 5.152 115.244 4.976 116.428 4.976C117.132 4.976 117.876 5.024 118.66 5.12C119.444 5.216 120.084 5.344 120.58 5.504L120.604 8.72L120.532 8.768C120.052 8.672 119.54 8.6 118.996 8.552C118.452 8.504 117.916 8.48 117.388 8.48C116.316 8.48 115.572 8.68 115.156 9.08C114.74 9.48 114.532 10.152 114.532 11.096C114.532 11.816 114.62 12.352 114.796 12.704C114.972 13.056 115.268 13.288 115.684 13.4C116.1 13.512 116.668 13.568 117.388 13.568C117.948 13.568 118.484 13.544 118.996 13.496C119.508 13.448 120.052 13.392 120.628 13.328L120.724 13.4ZM122.038 11.024C122.038 8.88 122.494 7.336 123.406 6.392C124.318 5.448 125.862 4.976 128.038 4.976C129.494 4.976 130.662 5.184 131.542 5.6C132.422 6.016 133.054 6.672 133.438 7.568C133.838 8.448 134.038 9.6 134.038 11.024C134.038 12.432 133.838 13.576 133.438 14.456C133.054 15.336 132.422 15.984 131.542 16.4C130.662 16.8 129.494 17 128.038 17C125.862 17 124.318 16.536 123.406 15.608C122.494 14.664 122.038 13.136 122.038 11.024ZM128.038 13.712C128.966 13.712 129.59 13.512 129.91 13.112C130.246 12.696 130.414 11.976 130.414 10.952C130.414 9.976 130.246 9.28 129.91 8.864C129.59 8.432 128.966 8.216 128.038 8.216C127.142 8.216 126.518 8.432 126.166 8.864C125.83 9.28 125.662 9.976 125.662 10.952C125.662 11.976 125.83 12.696 126.166 13.112C126.518 13.512 127.142 13.712 128.038 13.712ZM150.593 4.976C151.777 4.976 152.713 5.368 153.401 6.152C154.105 6.936 154.457 8.296 154.457 10.232V16.784H150.617L150.593 10.712C150.593 9.928 150.473 9.36 150.233 9.008C150.009 8.656 149.561 8.48 148.889 8.48C148.217 8.48 147.761 8.656 147.521 9.008C147.297 9.36 147.185 9.928 147.185 10.712V16.784H143.345L143.321 10.712C143.321 9.928 143.201 9.36 142.961 9.008C142.737 8.656 142.289 8.48 141.617 8.48C140.945 8.48 140.489 8.656 140.249 9.008C140.025 9.36 139.913 9.928 139.913 10.712V16.784H136.073V5.096H139.721L139.913 7.232H139.985C140.193 6.528 140.553 5.976 141.065 5.576C141.593 5.176 142.337 4.976 143.297 4.976C144.257 4.976 145.009 5.176 145.553 5.576C146.113 5.976 146.473 6.528 146.633 7.232H146.705C146.913 6.512 147.313 5.96 147.905 5.576C148.513 5.176 149.409 4.976 150.593 4.976Z" fill="black"/>
</svg>
