<svg width="48" height="48" viewBox="0 0 48 48" fill="none" xmlns="http://www.w3.org/2000/svg">
<g clip-path="url(#clip0_197_70)">
<path d="M23.1052 23.4806C23.1954 23.6382 23.3257 23.7692 23.4828 23.8603C23.64 23.9514 23.8184 23.9994 24 23.9994C24.1816 23.9994 24.3601 23.9514 24.5172 23.8603C24.6743 23.7692 24.8046 23.6382 24.8949 23.4806L29.6417 15.2996C30.03 14.631 29.5864 13.7143 28.7469 13.7143L19.2532 13.7143C18.4136 13.7143 17.97 14.631 18.3583 15.2996L23.1052 23.4806Z" fill="black"/>
<path d="M23.1052 33.7663C23.1954 33.9239 23.3257 34.0549 23.4828 34.146C23.64 34.2371 23.8184 34.2851 24 34.2851C24.1816 34.2851 24.3601 34.2371 24.5172 34.146C24.6743 34.0549 24.8046 33.9239 24.8949 33.7663L29.6417 25.5853C30.03 24.9167 29.5864 24 28.7469 24L19.2532 24C18.4136 24 17.97 24.9167 18.3583 25.5853L23.1052 33.7663Z" fill="black"/>
</g>
<defs>
<clipPath id="clip0_197_70">
<rect width="20.5714" height="20.5714" fill="white" transform="translate(13.7143 34.2857) rotate(-90)"/>
</clipPath>
</defs>
</svg>
