<svg width="48" height="48" viewBox="0 0 48 48" fill="none" xmlns="http://www.w3.org/2000/svg">
<g clip-path="url(#clip0_125_75)">
<path d="M24.8948 24.5194C24.8046 24.3618 24.6743 24.2308 24.5172 24.1397C24.36 24.0486 24.1816 24.0006 24 24.0006C23.8184 24.0006 23.6399 24.0486 23.4828 24.1397C23.3257 24.2308 23.1954 24.3618 23.1051 24.5194L18.3583 32.7004C17.97 33.369 18.4136 34.2857 19.2531 34.2857L28.7468 34.2857C29.5864 34.2857 30.03 33.369 29.6417 32.7004L24.8948 24.5194Z" fill="black"/>
<path d="M24.8948 14.2337C24.8046 14.0761 24.6743 13.9451 24.5172 13.854C24.36 13.7629 24.1816 13.7149 24 13.7149C23.8184 13.7149 23.6399 13.7629 23.4828 13.854C23.3257 13.9451 23.1954 14.0761 23.1051 14.2337L18.3583 22.4147C17.97 23.0833 18.4136 24 19.2531 24L28.7468 24C29.5864 24 30.03 23.0833 29.6417 22.4147L24.8948 14.2337Z" fill="black"/>
</g>
<defs>
<clipPath id="clip0_125_75">
<rect width="20.5714" height="20.5714" fill="white" transform="translate(34.2857 13.7143) rotate(90)"/>
</clipPath>
</defs>
</svg>
