<svg width="22" height="13" viewBox="0 0 22 13" fill="none" xmlns="http://www.w3.org/2000/svg">
<g clip-path="url(#clip0_124_71)">
<path d="M0.554837 5.22842C0.386261 5.32493 0.24617 5.46426 0.14874 5.63231C0.0513109 5.80036 0 5.99117 0 6.18542C0 6.37967 0.0513109 6.57047 0.14874 6.73852C0.24617 6.90657 0.386261 7.0459 0.554837 7.14242L9.30396 12.2189C10.019 12.6342 10.9993 12.1598 10.9993 11.2619V1.10892C10.9993 0.211041 10.019 -0.263334 9.30396 0.151916L0.554837 5.22842Z" fill="black"/>
<path d="M11.5542 5.22842C11.3856 5.32493 11.2455 5.46426 11.1481 5.63231C11.0506 5.80036 10.9993 5.99117 10.9993 6.18542C10.9993 6.37967 11.0506 6.57047 11.1481 6.73852C11.2455 6.90657 11.3856 7.0459 11.5542 7.14242L20.3033 12.2189C21.0183 12.6342 21.9987 12.1598 21.9987 11.2619V1.10892C21.9987 0.211041 21.0183 -0.263334 20.3033 0.151916L11.5542 5.22842Z" fill="black"/>
</g>
<defs>
<clipPath id="clip0_124_71">
<rect width="21.9987" height="12.3708" fill="white"/>
</clipPath>
</defs>
</svg>
